<svg width="600" height="400" xmlns="http://www.w3.org/2000/svg">
  <rect width="600" height="400" fill="#f9f9f9"/>
  <rect x="10" y="10" width="580" height="380" fill="white" stroke="#ddd" rx="10"/>
  
  <!-- Header -->
  <text x="20" y="40" font-size="18" font-weight="bold">Jan 2024   Prev Today Next</text>
  <rect x="450" y="25" width="100" height="25" fill="#e3f2fd" stroke="#2196f3" rx="5"/>
  <text x="460" y="42">User Icon</text>
  
  <!-- Calendar Area -->
  <text x="30" y="80" font-size="16" font-weight="bold">Calendar</text>
  <rect x="30" y="90" width="300" height="180" fill="#f0f8ff" stroke="#2196f3" rx="5"/>
  <text x="40" y="115" font-size="14">SUN MON TUE WED THU FRI SAT</text>
  <text x="40" y="135">1   2   3   4   5   6   7</text>
  <text x="40" y="155">8   9  10  11  12  13  14</text>
  <text x="40" y="175">15  16 17 18  19  20  21</text>
  <text x="40" y="195">22  23  24  25  26  27  28</text>
  <text x="40" y="215">29  30  31</text>
  
  <!-- Service Selection -->
  <text x="350" y="80" font-size="16" font-weight="bold">Select Service</text>
  <rect x="350" y="90" width="220" height="180" fill="#fff8e1" stroke="#ff9800" rx="5"/>
  <text x="360" y="115" font-size="14">Math Tutoring</text>
  <text x="360" y="140">Bounce House</text>
  <text x="360" y="165">Music Lesson</text>
  
  <!-- Time Slots -->
  <rect x="360" y="185" width="100" height="25" fill="#e8f5e9" stroke="#4caf50" rx="3"/>
  <text x="370" y="202">9 00 AM</text>
  <rect x="360" y="215" width="100" height="25" fill="#e8f5e9" stroke="#4caf50" rx="3"/>
  <text x="370" y="232">10 00 AM</text>
  <rect x="360" y="245" width="100" height="25" fill="#e8f5e9" stroke="#4caf50" rx="3"/>
  <text x="370" y="262">11 00 AM</text>
  
  <!-- Book Now Button -->
  <rect x="480" y="245" width="80" height="30" fill="#50c878" stroke="#2e7d32" rx="5"/>
  <text x="520" y="265" text-anchor="middle" fill="white" font-weight="bold">BOOK NOW</text>
  
  <!-- Available Times -->
  <text x="30" y="290" font-size="16" font-weight="bold">Available Times</text>
  
  <rect x="30" y="305" width="80" height="30" fill="#e3f2fd" stroke="#2196f3" rx="5"/>
  <text x="70" y="325" text-anchor="middle">9 00 AM</text>
  
  <rect x="120" y="305" width="80" height="30" fill="#e3f5fd" stroke="#2196f3" rx="5"/>
  <text x="160" y="325" text-anchor="middle">2 00 PM</text>
  
  <rect x="30" y="345" width="80" height="30" fill="#e3f2fd" stroke="#2196f3" rx="5"/>
  <text x="70" y="365" text-anchor="middle">10 00 AM</text>
  
  <rect x="120" y="345" width="80" height="30" fill="#e3f2fd" stroke="#2196f3" rx="5"/>
  <text x="160" y="365" text-anchor="middle">3 00 PM</text>
</svg>
