<svg width="600" height="400" xmlns="http://www.w3.org/2000/svg">
  <style>
    .mono { font-family: monospace; }
    .header { font-family: sans-serif; font-size: 18px; font-weight: bold; }
    .title { font-family: sans-serif; font-size: 16px; font-weight: bold; }
    .normal { font-family: sans-serif; font-size: 14px; }
  </style>
  
  <rect width="600" height="400" fill="#f9f9f9"/>
  <rect x="10" y="10" width="580" height="380" fill="white" stroke="#ddd" rx="10"/>
  
  <!-- Header with button-style navigation -->
  <text x="20" y="40" class="header">Jan 2024</text>
  
  <!-- Navigation buttons -->
  <rect x="140" y="25" width="50" height="25" fill="#e3f2fd" stroke="#2196f3" rx="5"/>
  <text x="165" y="42" text-anchor="middle" class="normal">Prev</text>
  
  <rect x="200" y="25" width="60" height="25" fill="#2196f3" stroke="#2196f3" rx="5"/>
  <text x="230" y="42" text-anchor="middle" fill="white" class="normal">Today</text>
  
  <rect x="270" y="25" width="50" height="25" fill="#e3f2fd" stroke="#2196f3" rx="5"/>
  <text x="295" y="42" text-anchor="middle" class="normal">Next</text>
  
  <!-- User Icon button -->
  <rect x="450" y="25" width="100" height="25" fill="#e3f2fd" stroke="#2196f3" rx="5"/>
  <text x="460" y="42" class="normal">User Icon</text>
  
  <!-- Calendar Area -->
  <text x="30" y="80" class="title">Calendar</text>
  <rect x="30" y="90" width="300" height="180" fill="#f0f8ff" stroke="#2196f3" rx="5"/>
  
  <!-- Calendar days header - MONOSPACE for alignment -->
  <text x="40" y="115" class="mono">SUN MON TUE WED THU FRI SAT</text>
  
  <!-- Calendar dates - each column aligned with 4-character spacing -->
  <text x="40" y="135" class="mono">  1   2   3   4   5   6   7</text>
  <text x="40" y="155" class="mono">
    <tspan fill="#2196f3" font-weight="bold">  8</tspan>
    <tspan>   9  10  11  12  13  14</tspan>
  </text>
  <text x="40" y="175" class="mono">
    <tspan> 15  16 </tspan>
    <tspan fill="#2196f3" font-weight="bold">17</tspan>
    <tspan>  18  19  20  21</tspan>
  </text>
  <text x="40" y="195" class="mono"> 22  23  24  25  26  27  28</text>
  <text x="40" y="215" class="mono"> 29  30  31</text>
  
  <!-- Service Selection -->
  <text x="350" y="80" class="title">Select Service</text>
  <rect x="350" y="90" width="220" height="180" fill="#fff8e1" stroke="#ff9800" rx="5"/>
  <text x="360" y="115" class="normal">Math Tutoring</text>
  <text x="360" y="140" class="normal">Bounce House</text>
  <text x="360" y="165" class="normal">Music Lesson</text>
  
  <!-- Time Slots -->
  <rect x="360" y="185" width="100" height="25" fill="#e8f5e9" stroke="#4caf50" rx="3"/>
  <text x="370" y="202" class="normal">9:00 AM</text>
  <rect x="360" y="215" width="100" height="25" fill="#e8f5e9" stroke="#4caf50" rx="3"/>
  <text x="370" y="232" class="normal">10:00 AM</text>
  <rect x="360" y="245" width="100" height="25" fill="#e8f5e9" stroke="#4caf50" rx="3"/>
  <text x="370" y="262" class="normal">11:00 AM</text>
  
  <!-- Book Now Button -->
  <rect x="480" y="245" width="80" height="30" fill="#50c878" stroke="#2e7d32" rx="5"/>
  <text x="520" y="265" text-anchor="middle" fill="white" class="normal" font-weight="bold">BOOK NOW</text>
  
  <!-- Available Times -->
  <text x="30" y="290" class="title">Available Times</text>
  
  <rect x="30" y="305" width="80" height="30" fill="#e3f2fd" stroke="#2196f3" rx="5"/>
  <text x="70" y="325" text-anchor="middle" class="normal">9:00 AM</text>
  
  <rect x="120" y="305" width="80" height="30" fill="#e3f2fd" stroke="#2196f3" rx="5"/>
  <text x="160" y="325" text-anchor="middle" class="normal">2:00 PM</text>
  
  <rect x="30" y="345" width="80" height="30" fill="#e3f2fd" stroke="#2196f3" rx="5"/>
  <text x="70" y="365" text-anchor="middle" class="normal">10:00 AM</text>
  
  <rect x="120" y="345" width="80" height="30" fill="#e3f2fd" stroke="#2196f3" rx="5"/>
  <text x="160" y="365" text-anchor="middle" class="normal">3:00 PM</text>
</svg>
