<svg width="600" height="400" xmlns="http://www.w3.org/2000/svg">
  <style>
    .mono { font-family: monospace; font-size: 14px; }
    .header { font-family: sans-serif; font-size: 18px; font-weight: bold; }
    .title { font-family: sans-serif; font-size: 16px; font-weight: bold; }
    .normal { font-family: sans-serif; font-size: 14px; }
    .day-button { fill: white; stroke: #ccc; stroke-width: 1; }
    .selected-day { fill: #2196f3; stroke: #2196f3; }
    .day-text { font-family: sans-serif; font-size: 12px; text-anchor: middle; }
    .selected-text { fill: white; }
  </style>
  
  <rect width="600" height="400" fill="#f9f9f9"/>
  <rect x="10" y="10" width="580" height="380" fill="white" stroke="#ddd" rx="10"/>
  
  <!-- Header with button-style navigation -->
  <text x="20" y="40" class="header">Jan 2024</text>
  
  <!-- Navigation buttons -->
  <rect x="140" y="25" width="50" height="25" fill="#e3f2fd" stroke="#2196f3" rx="5"/>
  <text x="165" y="42" text-anchor="middle" class="normal">Prev</text>
  
  <rect x="200" y="25" width="60" height="25" fill="#2196f3" stroke="#2196f3" rx="5"/>
  <text x="230" y="42" text-anchor="middle" fill="white" class="normal">Today</text>
  
  <rect x="270" y="25" width="50" height="25" fill="#e3f2fd" stroke="#2196f3" rx="5"/>
  <text x="295" y="42" text-anchor="middle" class="normal">Next</text>
  
  <!-- User Icon button -->
  <rect x="450" y="25" width="100" height="25" fill="#e3f2fd" stroke="#2196f3" rx="5"/>
  <text x="460" y="42" class="normal">User Icon</text>
  
  <!-- Calendar Area - COMPACT -->
  <text x="30" y="80" class="title">Calendar</text>
  <rect x="30" y="90" width="280" height="180" fill="#f0f8ff" stroke="#2196f3" rx="5"/>
  
  <!-- Day headers - Compact spacing -->
  <text x="45" y="115" class="mono" text-anchor="middle">SUN</text>
  <text x="80" y="115" class="mono" text-anchor="middle">MON</text>
  <text x="115" y="115" class="mono" text-anchor="middle">TUE</text>
  <text x="150" y="115" class="mono" text-anchor="middle">WED</text>
  <text x="185" y="115" class="mono" text-anchor="middle">THU</text>
  <text x="220" y="115" class="mono" text-anchor="middle">FRI</text>
  <text x="255" y="115" class="mono" text-anchor="middle">SAT</text>
  
  <!-- Week 1: Day buttons - Compact (35px between columns) -->
  <rect x="40" y="125" width="20" height="20" class="day-button" rx="3"/>
  <text x="50" y="140" class="day-text">1</text>
  
  <rect x="75" y="125" width="20" height="20" class="day-button" rx="3"/>
  <text x="85" y="140" class="day-text">2</text>
  
  <rect x="110" y="125" width="20" height="20" class="day-button" rx="3"/>
  <text x="120" y="140" class="day-text">3</text>
  
  <rect x="145" y="125" width="20" height="20" class="day-button" rx="3"/>
  <text x="155" y="140" class="day-text">4</text>
  
  <rect x="180" y="125" width="20" height="20" class="day-button" rx="3"/>
  <text x="190" y="140" class="day-text">5</text>
  
  <rect x="215" y="125" width="20" height="20" class="day-button" rx="3"/>
  <text x="225" y="140" class="day-text">6</text>
  
  <rect x="250" y="125" width="20" height="20" class="day-button" rx="3"/>
  <text x="260" y="140" class="day-text">7</text>
  
  <!-- Week 2: Day buttons -->
  <rect x="40" y="150" width="20" height="20" class="day-button" rx="3"/>
  <text x="50" y="165" class="day-text">8</text>
  
  <rect x="75" y="150" width="20" height="20" class="day-button" rx="3"/>
  <text x="85" y="165" class="day-text">9</text>
  
  <rect x="110" y="150" width="20" height="20" class="day-button" rx="3"/>
  <text x="120" y="165" class="day-text">10</text>
  
  <rect x="145" y="150" width="20" height="20" class="day-button" rx="3"/>
  <text x="155" y="165" class="day-text">11</text>
  
  <rect x="180" y="150" width="20" height="20" class="day-button" rx="3"/>
  <text x="190" y="165" class="day-text">12</text>
  
  <rect x="215" y="150" width="20" height="20" class="day-button" rx="3"/>
  <text x="225" y="165" class="day-text">13</text>
  
  <rect x="250" y="150" width="20" height="20" class="day-button" rx="3"/>
  <text x="260" y="165" class="day-text">14</text>
  
  <!-- Week 3: Day buttons - Day 17 is selected -->
  <rect x="40" y="175" width="20" height="20" class="day-button" rx="3"/>
  <text x="50" y="190" class="day-text">15</text>
  
  <rect x="75" y="175" width="20" height="20" class="day-button" rx="3"/>
  <text x="85" y="190" class="day-text">16</text>
  
  <rect x="110" y="175" width="20" height="20" class="selected-day" rx="3"/>
  <text x="120" y="190" class="day-text selected-text">17</text>
  
  <rect x="145" y="175" width="20" height="20" class="day-button" rx="3"/>
  <text x="155" y="190" class="day-text">18</text>
  
  <rect x="180" y="175" width="20" height="20" class="day-button" rx="3"/>
  <text x="190" y="190" class="day-text">19</text>
  
  <rect x="215" y="175" width="20" height="20" class="day-button" rx="3"/>
  <text x="225" y="190" class="day-text">20</text>
  
  <rect x="250" y="175" width="20" height="20" class="day-button" rx="3"/>
  <text x="260" y="190" class="day-text">21</text>
  
  <!-- Week 4: Day buttons -->
  <rect x="40" y="200" width="20" height="20" class="day-button" rx="3"/>
  <text x="50" y="215" class="day-text">22</text>
  
  <rect x="75" y="200" width="20" height="20" class="day-button" rx="3"/>
  <text x="85" y="215" class="day-text">23</text>
  
  <rect x="110" y="200" width="20" height="20" class="day-button" rx="3"/>
  <text x="120" y="215" class="day-text">24</text>
  
  <rect x="145" y="200" width="20" height="20" class="day-button" rx="3"/>
  <text x="155" y="215" class="day-text">25</text>
  
  <rect x="180" y="200" width="20" height="20" class="day-button" rx="3"/>
  <text x="190" y="215" class="day-text">26</text>
  
  <rect x="215" y="200" width="20" height="20" class="day-button" rx="3"/>
  <text x="225" y="215" class="day-text">27</text>
  
  <rect x="250" y="200" width="20" height="20" class="day-button" rx="3"/>
  <text x="260" y="215" class="day-text">28</text>
  
  <!-- Week 5: Day buttons -->
  <rect x="40" y="225" width="20" height="20" class="day-button" rx="3"/>
  <text x="50" y="240" class="day-text">29</text>
  
  <rect x="75" y="225" width="20" height="20" class="day-button" rx="3"/>
  <text x="85" y="240" class="day-text">30</text>
  
  <rect x="110" y="225" width="20" height="20" class="day-button" rx="3"/>
  <text x="120" y="240" class="day-text">31</text>
  
  <!-- Service Selection - MORE SPACE NOW -->
  <text x="330" y="80" class="title">Select Service</text>
  <rect x="330" y="90" width="240" height="180" fill="#fff8e1" stroke="#ff9800" rx="5"/>
  <text x="340" y="115" class="normal">Math Tutoring</text>
  <text x="340" y="140" class="normal">Bounce House</text>
  <text x="340" y="165" class="normal">Music Lesson</text>
  
  <!-- Time Slots in Service Box - MORE SPACE -->
  <rect x="340" y="185" width="110" height="25" fill="#e8f5e9" stroke="#4caf50" rx="3"/>
  <text x="350" y="202" class="normal">9:00 AM</text>
  
  <rect x="340" y="215" width="110" height="25" fill="#e8f5e9" stroke="#4caf50" rx="3"/>
  <text x="350" y="232" class="normal">2:00 PM</text>
  
  <rect x="340" y="245" width="110" height="25" fill="#e8f5e9" stroke="#4caf50" rx="3"/>
  <text x="350" y="262" class="normal">3:00 PM</text>
  
  <!-- Book Now Button - MORE SPACE -->
  <rect x="460" y="245" width="100" height="30" fill="#50c878" stroke="#2e7d32" rx="5"/>
  <text x="510" y="265" text-anchor="middle" fill="white" class="normal" font-weight="bold">BOOK NOW</text>
  
  <!-- Available Times -->
  <text x="30" y="290" class="title">Available Times</text>
  
  <rect x="30" y="305" width="80" height="30" fill="#e3f2fd" stroke="#2196f3" rx="5"/>
  <text x="70" y="325" text-anchor="middle" class="normal">9:00 AM</text>
  
  <rect x="120" y="305" width="80" height="30" fill="#e3f2fd" stroke="#2196f3" rx="5"/>
  <text x="160" y="325" text-anchor="middle" class="normal">2:00 PM</text>
  
  <rect x="30" y="345" width="80" height="30" fill="#e3f2fd" stroke="#2196f3" rx="5"/>
  <text x="70" y="365" text-anchor="middle" class="normal">3:00 PM</text>
  
  <rect x="120" y="345" width="80" height="30" fill="#e3f2fd" stroke="#2196f3" rx="5"/>
  <text x="160" y="365" text-anchor="middle" class="normal">10:00 AM</text>
</svg>
